<?xml version="1.0" encoding="utf-8"?>
<!-- Generator: Adobe Illustrator 24.1.2, SVG Export Plug-In . SVG Version: 6.00 Build 0)  -->
<svg version="1.1" id="Слой_1" xmlns="http://www.w3.org/2000/svg" xmlns:xlink="http://www.w3.org/1999/xlink" x="0px" y="0px"
	 viewBox="0 0 777 137" style="enable-background:new 0 0 777 137;" xml:space="preserve" width="777px" height="137px">
<g>
	<path style="fill:#0AA0AA;" d="M47.4,23.3L27.6,60.1c-1.9,3.5-4.2,6.2-6.9,8c-2.7,1.8-5.6,2.7-8.7,2.7c-2.4,0-5-0.5-7.6-1.6L7,61.1
		c1.9,0.6,3.4,0.9,4.6,0.9c1.3,0,2.5-0.3,3.6-1c1-0.6,2-1.6,2.9-3l0.4-0.5L0.2,23.3h11.5l12.4,25l12.8-25H47.4z"/>
	<polygon style="fill:#0AA0AA;" points="108.2,69.8 108.1,42 94.4,64.9 89.6,64.9 75.9,42.5 75.9,69.8 65.8,69.8 65.8,23.3 
		74.7,23.3 92.1,52.2 109.3,23.3 118.2,23.3 118.3,69.8 	"/>
	<path style="fill:#0AA0AA;" d="M246.3,42.4c3,2.5,4.5,6.3,4.5,11.2c0,5.3-1.6,9.3-5,12.1c-3.4,2.7-8.1,4.1-14.1,4.1h-21V23.3h10.7
		v15.3h11.8C238.9,38.6,243.3,39.8,246.3,42.4L246.3,42.4z M237.7,59.8L237.7,59.8c1.6-1.4,2.4-3.4,2.4-6c0-4.8-2.9-7.2-8.9-7.2
		h-9.7v15.3h9.7C233.9,61.8,236.1,61.2,237.7,59.8L237.7,59.8z M256.8,23.3L256.8,23.3h10.7v46.5h-10.7V23.3z"/>
	<path style="fill:#0AA0AA;" d="M292.3,23.3H303v30.3l22.2-30.3h10.1v46.5h-10.6V39.6l-22.2,30.2h-10.2V23.3z M300.9,10.1
		L300.9,10.1h7.4c0.1,3.2,1.9,4.8,5.5,4.8c1.8,0,3.1-0.4,4.1-1.2c0.9-0.8,1.4-2,1.4-3.6h7.4c0,3.3-1.1,5.8-3.2,7.6
		c-2.1,1.7-5.4,2.6-9.6,2.6C305.3,20.3,301,16.9,300.9,10.1L300.9,10.1z"/>
	<path style="fill:#0AA0AA;" d="M440.2,61.1v18.4h-10v-9.6h-32.8v9.6h-10l0.1-18.4h1.8c2.8-0.1,4.8-2.1,5.9-6.1s1.9-9.7,2.1-17.1
		l0.5-14.5h35.7v37.8H440.2z M405.5,52.8L405.5,52.8c-0.7,3.7-1.8,6.5-3.3,8.3h20.8v-29h-16l-0.2,6.8
		C406.7,44.4,406.3,49,405.5,52.8L405.5,52.8z"/>
	<path style="fill:#0AA0AA;" d="M469.9,67.5c-3.9-2.1-6.9-5-9.1-8.6c-2.2-3.6-3.3-7.7-3.3-12.3c0-4.6,1.1-8.7,3.3-12.3
		c2.2-3.7,5.2-6.5,9.1-8.6c3.9-2.1,8.2-3.1,13-3.1c4.8,0,9.2,1,13,3.1c3.9,2.1,6.9,5,9.1,8.6s3.3,7.8,3.3,12.3
		c0,4.6-1.1,8.7-3.3,12.3c-2.2,3.7-5.2,6.5-9.1,8.6c-3.9,2.1-8.2,3.1-13,3.1C478.1,70.6,473.8,69.6,469.9,67.5L469.9,67.5z
		 M490.4,59.5L490.4,59.5c2.2-1.3,3.9-3,5.2-5.3c1.2-2.3,1.9-4.8,1.9-7.7c0-2.9-0.7-5.5-1.9-7.7c-1.3-2.3-3-4-5.2-5.3
		c-2.2-1.2-4.7-1.9-7.5-1.9s-5.2,0.7-7.4,1.9c-2.2,1.3-4,3-5.2,5.3c-1.3,2.2-1.9,4.8-1.9,7.7c0,2.9,0.6,5.4,1.9,7.7
		c1.2,2.2,3,4,5.2,5.3c2.2,1.2,4.7,1.9,7.4,1.9S488.2,60.8,490.4,59.5L490.4,59.5z"/>
	<polygon style="fill:#0AA0AA;" points="548,51.1 540.6,51.1 540.6,69.8 529.9,69.8 529.9,23.3 540.6,23.3 540.6,42.1 548.3,42.1 
		560.5,23.3 571.9,23.3 556.7,45.7 572.3,69.8 560.1,69.8 	"/>
	<polygon style="fill:#0AA0AA;" points="625.7,32.1 610.8,32.1 610.8,69.8 600.2,69.8 600.2,32.1 585.4,32.1 585.4,23.3 625.7,23.3 
			"/>
	<path style="fill:#0AA0AA;" d="M654.3,67.5c-3.9-2.1-6.9-5-9.1-8.6c-2.2-3.6-3.3-7.7-3.3-12.3c0-4.6,1.1-8.7,3.3-12.3
		c2.2-3.7,5.2-6.5,9.1-8.6c3.9-2.1,8.2-3.1,13-3.1c4.8,0,9.2,1,13,3.1c3.9,2.1,6.9,5,9.1,8.6c2.2,3.7,3.3,7.8,3.3,12.3
		c0,4.6-1.1,8.7-3.3,12.3c-2.2,3.7-5.2,6.5-9.1,8.6c-3.9,2.1-8.2,3.1-13,3.1C662.5,70.6,658.1,69.6,654.3,67.5L654.3,67.5z
		 M674.8,59.5L674.8,59.5c2.2-1.3,3.9-3,5.2-5.3c1.3-2.3,1.9-4.8,1.9-7.7c0-2.9-0.6-5.5-1.9-7.7c-1.3-2.3-3-4-5.2-5.3
		c-2.2-1.2-4.7-1.9-7.5-1.9c-2.7,0-5.2,0.7-7.4,1.9c-2.2,1.3-4,3-5.2,5.3c-1.3,2.2-1.9,4.8-1.9,7.7c0,2.9,0.6,5.4,1.9,7.7
		c1.2,2.2,3,4,5.2,5.3c2.2,1.2,4.7,1.9,7.4,1.9C670,61.4,672.5,60.8,674.8,59.5L674.8,59.5z"/>
	<polygon style="fill:#0AA0AA;" points="153.9,61.7 153.9,30.7 153.9,30.7 153.9,23.3 143.1,23.3 143.1,69.8 153.9,69.8 153.9,61.7 
			"/>
	<polygon style="fill:#0AA0AA;" points="175,23.3 175,41.6 159.6,41.6 159.6,50.7 175,50.7 175,69.8 185.8,69.8 185.8,23.3 	"/>
	<path style="fill:#0AA0AA;" d="M752.2,31.2c-1.6-2.5-4-4.5-7-5.8c-3-1.4-6.6-2.1-10.7-2.1h-20.2v46.5h10.8l0,0h0v-31h0v-6.8h8.8
		c3.2,0,5.7,0.7,7.4,2.1c1.7,1.4,2.5,3.4,2.5,6c0,2.6-0.9,4.5-2.5,5.9c-1.7,1.4-4.2,2.1-7.4,2.1h-3.1V57h3.7c4.1,0,7.7-0.7,10.7-2
		c3-1.4,5.4-3.3,7-5.8c1.6-2.6,2.5-5.5,2.5-8.9C754.7,36.7,753.9,33.7,752.2,31.2L752.2,31.2z"/>
	<polygon style="fill:#0AA0AA;" points="52.1,124.4 48,124.4 48,133 45.3,133 45.3,113.5 48,113.5 48,122 52.1,122 58.3,113.5 
		61.3,113.5 54.3,122.9 61.6,133 58.4,133 	"/>
	<path style="fill:#0AA0AA;" d="M86.4,113.5V133h-2.7v-17.1H75l-0.2,5.7c-0.1,2.7-0.3,4.9-0.7,6.5c-0.3,1.7-0.9,2.9-1.6,3.8
		s-1.8,1.3-3,1.3c-0.6,0-1.2-0.1-1.8-0.2l0.2-2.5c0.3,0.1,0.6,0.1,0.9,0.1c0.8,0,1.4-0.3,1.9-1c0.5-0.7,0.9-1.6,1.1-2.9
		c0.3-1.3,0.4-3,0.5-5.1l0.3-8.2H86.4z"/>
	<polygon style="fill:#0AA0AA;" points="98.1,113.5 100.8,113.5 100.8,128.5 112.4,113.5 115,113.5 115,133 112.2,133 112.2,118 
		100.7,133 98.1,133 	"/>
	<polygon style="fill:#0AA0AA;" points="143.4,113.5 143.4,133 140.6,133 140.6,124.3 129.4,124.3 129.4,133 126.6,133 126.6,113.5 
		129.4,113.5 129.4,121.9 140.6,121.9 140.6,113.5 	"/>
	<polygon style="fill:#0AA0AA;" points="155.1,113.5 157.9,113.5 157.9,128.5 169.4,113.5 172,113.5 172,133 169.3,133 169.3,118 
		157.7,133 155.1,133 	"/>
	<polygon style="fill:#0AA0AA;" points="190.5,124.4 186.4,124.4 186.4,133 183.7,133 183.7,113.5 186.4,113.5 186.4,122 190.5,122 
		196.7,113.5 199.7,113.5 192.7,122.9 200,133 196.8,133 	"/>
	<path style="fill:#0AA0AA;" d="M220.9,128.1h-10.4l-2.2,4.9h-2.9l8.8-19.6h2.7L226,133H223L220.9,128.1z M219.9,125.9L219.9,125.9
		l-4.2-9.6l-4.2,9.6H219.9z"/>
	<polygon style="fill:#0AA0AA;" points="264.8,113.5 264.8,133 262,133 262,124.3 250.8,124.3 250.8,133 248,133 248,113.5 
		250.8,113.5 250.8,121.9 262,121.9 262,113.5 	"/>
	<polygon style="fill:#0AA0AA;" points="290.7,130.6 290.7,133 276.5,133 276.5,113.5 290.3,113.5 290.3,115.9 279.3,115.9 
		279.3,121.9 289.1,121.9 289.1,124.3 279.3,124.3 279.3,130.6 	"/>
	<path style="fill:#0AA0AA;" d="M304,131.9c-1.6-0.9-2.8-2.1-3.7-3.6c-0.9-1.5-1.4-3.2-1.4-5.1c0-1.9,0.5-3.6,1.4-5.1
		c0.9-1.5,2.1-2.7,3.7-3.6c1.6-0.9,3.4-1.3,5.3-1.3c2,0,3.7,0.5,5.3,1.3c1.6,0.9,2.8,2.1,3.7,3.6c0.9,1.5,1.4,3.2,1.4,5.1
		c0,1.9-0.5,3.6-1.4,5.1c-0.9,1.5-2.1,2.7-3.7,3.6c-1.6,0.9-3.3,1.3-5.3,1.3C307.4,133.2,305.6,132.8,304,131.9L304,131.9z
		 M313.2,129.8L313.2,129.8c1.1-0.7,2-1.5,2.7-2.7c0.7-1.1,1-2.4,1-3.8c0-1.4-0.3-2.7-1-3.8c-0.7-1.2-1.6-2.1-2.7-2.7
		c-1.2-0.6-2.4-1-3.9-1c-1.4,0-2.7,0.3-3.9,1c-1.2,0.7-2.1,1.6-2.7,2.7c-0.7,1.1-1,2.4-1,3.8c0,1.4,0.3,2.7,1,3.8
		c0.7,1.2,1.6,2,2.7,2.7c1.2,0.7,2.5,1,3.9,1C310.8,130.8,312.1,130.4,313.2,129.8L313.2,129.8z"/>
	<polygon style="fill:#0AA0AA;" points="343,115.9 336.3,115.9 336.3,133 333.5,133 333.5,115.9 326.9,115.9 326.9,113.5 343,113.5 
			"/>
	<path style="fill:#0AA0AA;" d="M366.9,113.5V133h-2.7v-17.1h-8.6l-0.2,5.7c-0.1,2.7-0.3,4.9-0.7,6.5c-0.3,1.7-0.9,2.9-1.6,3.8
		c-0.8,0.9-1.8,1.3-3,1.3c-0.6,0-1.2-0.1-1.8-0.2l0.2-2.5c0.3,0.1,0.6,0.1,0.9,0.1c0.8,0,1.4-0.3,1.9-1c0.5-0.7,0.9-1.6,1.1-2.9
		c0.2-1.3,0.4-3,0.5-5.1l0.3-8.2H366.9z"/>
	<path style="fill:#0AA0AA;" d="M382,131.9c-1.6-0.9-2.8-2.1-3.7-3.6c-0.9-1.5-1.3-3.2-1.3-5.1c0-1.9,0.4-3.6,1.3-5.1
		c0.9-1.5,2.2-2.7,3.7-3.6c1.6-0.9,3.3-1.3,5.3-1.3c2,0,3.7,0.5,5.3,1.3c1.6,0.9,2.8,2.1,3.7,3.6c0.9,1.5,1.3,3.2,1.3,5.1
		c0,1.9-0.4,3.6-1.3,5.1c-0.9,1.5-2.1,2.7-3.7,3.6c-1.6,0.9-3.3,1.3-5.3,1.3C385.4,133.2,383.6,132.8,382,131.9L382,131.9z
		 M391.2,129.8L391.2,129.8c1.2-0.7,2.1-1.5,2.7-2.7c0.7-1.1,1-2.4,1-3.8c0-1.4-0.3-2.7-1-3.8c-0.7-1.2-1.6-2.1-2.7-2.7
		c-1.1-0.6-2.4-1-3.9-1c-1.4,0-2.7,0.3-3.9,1c-1.2,0.7-2.1,1.6-2.7,2.7c-0.7,1.1-1,2.4-1,3.8c0,1.4,0.3,2.7,1,3.8
		c0.7,1.2,1.6,2,2.7,2.7c1.2,0.7,2.4,1,3.9,1C388.8,130.8,390.1,130.4,391.2,129.8L391.2,129.8z"/>
	<polygon style="fill:#0AA0AA;" points="423.5,124.4 419.8,124.4 419.8,133 417.1,133 417.1,124.4 413.3,124.4 407.9,133 404.6,133 
		411,122.8 405.1,113.5 408.1,113.5 413.3,122 417.1,122 417.1,113.5 419.8,113.5 419.8,122 423.5,122 428.8,113.5 431.8,113.5 
		425.8,122.9 432.3,133 429,133 	"/>
	<polygon style="fill:#0AA0AA;" points="457.6,113.5 457.6,133 454.8,133 454.8,124.3 443.6,124.3 443.6,133 440.8,133 440.8,113.5 
		443.6,113.5 443.6,121.9 454.8,121.9 454.8,113.5 	"/>
	<path style="fill:#0AA0AA;" d="M472.7,131.9c-1.6-0.9-2.8-2.1-3.7-3.6c-0.9-1.5-1.4-3.2-1.4-5.1c0-1.9,0.5-3.6,1.4-5.1
		c0.9-1.5,2.2-2.7,3.7-3.6c1.6-0.9,3.3-1.3,5.3-1.3c2,0,3.7,0.5,5.3,1.3c1.6,0.9,2.8,2.1,3.7,3.6c0.9,1.5,1.3,3.2,1.3,5.1
		c0,1.9-0.5,3.6-1.3,5.1c-0.9,1.5-2.1,2.7-3.7,3.6c-1.6,0.9-3.3,1.3-5.3,1.3C476.1,133.2,474.3,132.8,472.7,131.9L472.7,131.9z
		 M481.9,129.8L481.9,129.8c1.1-0.7,2-1.5,2.7-2.7c0.7-1.1,1-2.4,1-3.8c0-1.4-0.3-2.7-1-3.8c-0.7-1.2-1.6-2.1-2.7-2.7
		c-1.1-0.6-2.4-1-3.9-1c-1.4,0-2.7,0.3-3.9,1c-1.2,0.7-2.1,1.6-2.7,2.7c-0.7,1.1-1,2.4-1,3.8c0,1.4,0.3,2.7,1,3.8
		c0.7,1.2,1.6,2,2.7,2.7c1.2,0.7,2.5,1,3.9,1C479.5,130.8,480.8,130.4,481.9,129.8L481.9,129.8z"/>
	<path style="fill:#0AA0AA;" d="M498.5,113.5h2.8v15.1l11.6-15.1h2.6V133h-2.7V118L501.1,133h-2.6V113.5z M503.4,111.1L503.4,111.1
		c-0.8-0.7-1.2-1.6-1.2-2.8h2c0,0.7,0.3,1.3,0.8,1.7c0.5,0.4,1.2,0.6,2,0.6c0.8,0,1.5-0.2,2-0.6s0.8-1,0.8-1.7h2
		c0,1.2-0.4,2.2-1.2,2.8c-0.9,0.7-2,1-3.5,1C505.4,112.1,504.2,111.8,503.4,111.1L503.4,111.1z"/>
	<polygon style="fill:#0AA0AA;" points="557,113.5 557,133 554.3,133 554.3,115.9 542.9,115.9 542.9,133 540.2,133 540.2,113.5 	"/>
	<path style="fill:#0AA0AA;" d="M572.1,131.9c-1.6-0.9-2.8-2.1-3.7-3.6c-0.9-1.5-1.4-3.2-1.4-5.1c0-1.9,0.5-3.6,1.4-5.1
		s2.2-2.7,3.7-3.6c1.6-0.9,3.3-1.3,5.3-1.3c2,0,3.7,0.5,5.3,1.3c1.6,0.9,2.8,2.1,3.7,3.6c0.9,1.5,1.3,3.2,1.3,5.1
		c0,1.9-0.5,3.6-1.3,5.1c-0.9,1.5-2.1,2.7-3.7,3.6c-1.6,0.9-3.3,1.3-5.3,1.3C575.5,133.2,573.7,132.8,572.1,131.9L572.1,131.9z
		 M581.3,129.8L581.3,129.8c1.1-0.7,2-1.5,2.7-2.7c0.7-1.1,1-2.4,1-3.8c0-1.4-0.3-2.7-1-3.8c-0.7-1.2-1.6-2.1-2.7-2.7
		c-1.1-0.6-2.4-1-3.9-1c-1.4,0-2.7,0.3-3.9,1c-1.2,0.7-2.1,1.6-2.7,2.7c-0.7,1.1-1,2.4-1,3.8c0,1.4,0.3,2.7,1,3.8
		c0.7,1.2,1.6,2,2.7,2.7c1.2,0.7,2.5,1,3.9,1C578.9,130.8,580.2,130.4,581.3,129.8L581.3,129.8z"/>
	<polygon style="fill:#0AA0AA;" points="616,133 616,118.8 608.9,130.6 607.7,130.6 600.6,118.8 600.6,133 597.9,133 597.9,113.5 
		600.2,113.5 608.4,127.2 616.4,113.5 618.7,113.5 618.7,133 	"/>
	<path style="fill:#0AA0AA;" d="M633.8,131.9c-1.6-0.9-2.8-2.1-3.7-3.6c-0.9-1.5-1.4-3.2-1.4-5.1c0-1.9,0.5-3.6,1.4-5.1
		c0.9-1.5,2.1-2.7,3.7-3.6c1.6-0.9,3.3-1.3,5.3-1.3c2,0,3.7,0.5,5.3,1.3c1.6,0.9,2.8,2.1,3.7,3.6c0.9,1.5,1.3,3.2,1.3,5.1
		c0,1.9-0.4,3.6-1.3,5.1c-0.9,1.5-2.1,2.7-3.7,3.6c-1.6,0.9-3.3,1.3-5.3,1.3C637.2,133.2,635.4,132.8,633.8,131.9L633.8,131.9z
		 M643.1,129.8L643.1,129.8c1.1-0.7,2-1.5,2.7-2.7c0.7-1.1,1-2.4,1-3.8c0-1.4-0.3-2.7-1-3.8c-0.7-1.2-1.6-2.1-2.7-2.7
		c-1.2-0.6-2.4-1-3.9-1c-1.4,0-2.7,0.3-3.9,1c-1.2,0.7-2.1,1.6-2.7,2.7c-0.7,1.1-1,2.4-1,3.8c0,1.4,0.3,2.7,1,3.8
		c0.7,1.2,1.6,2,2.7,2.7c1.2,0.7,2.5,1,3.9,1C640.6,130.8,641.9,130.4,643.1,129.8L643.1,129.8z"/>
	<path style="fill:#0AA0AA;" d="M684.1,113.5V133h-24.5v-19.6h2.7v17.1h8.1v-17.1h2.7v17.1h8.1v-17.1H684.1z M687.1,130.6
		L687.1,130.6v6.7h-2.6V133h-3.1v-2.4H687.1z"/>
	<polygon style="fill:#0AA0AA;" points="696.5,113.5 699.2,113.5 699.2,128.5 710.8,113.5 713.4,113.5 713.4,133 710.6,133 
		710.6,118 699.1,133 696.5,133 	"/>
	<rect x="5.4" y="120.3" style="fill:#0AA0AA;" width="26.9" height="3.4"/>
	<rect x="723.9" y="120.3" style="fill:#0AA0AA;" width="26.9" height="3.4"/>
	<g>
		<path style="fill:#0AA0AA;" d="M756.2,22.2V6.6h6.6c1.7,0,2.9,0.1,3.6,0.4s1.4,0.8,1.8,1.5c0.5,0.7,0.7,1.5,0.7,2.5
			c0,1.2-0.3,2.1-1,2.9c-0.7,0.8-1.7,1.2-3.1,1.4c0.7,0.4,1.2,0.8,1.7,1.3c0.4,0.5,1,1.3,1.8,2.5l1.9,3h-3.8l-2.3-3.4
			c-0.8-1.2-1.4-2-1.7-2.3c-0.3-0.3-0.6-0.5-0.9-0.6c-0.3-0.1-0.9-0.2-1.6-0.2h-0.6v6.5H756.2z M759.4,13.2h2.3
			c1.5,0,2.5-0.1,2.8-0.2s0.7-0.3,0.9-0.7c0.2-0.3,0.3-0.7,0.3-1.2c0-0.5-0.1-0.9-0.4-1.3c-0.3-0.3-0.7-0.5-1.2-0.6
			c-0.3,0-1-0.1-2.3-0.1h-2.5V13.2z"/>
	</g>
	<path style="fill:none;stroke:#0AA0AA;stroke-width:2.0126;stroke-miterlimit:10;" d="M762.7,27.7c7.2,0,13-6,13-13.3
		s-5.8-13.3-13-13.3c-7.1,0-13,6-13,13.3S755.6,27.7,762.7,27.7L762.7,27.7z"/>
</g>
</svg>
